<svg width="18" height="18" viewBox="0 0 18 18" fill="none" xmlns="http://www.w3.org/2000/svg">
<path d="M17.0752 5.87471C17.0252 4.81638 16.8168 3.45805 15.6835 2.32472C14.5502 1.19139 13.1919 0.983054 12.1335 0.933054C10.8752 0.866387 7.13353 0.858054 5.88353 0.933054C4.82519 0.983054 3.46685 1.18305 2.33352 2.32472C1.20018 3.45805 0.99184 4.81638 0.94184 5.87471C0.86684 7.13305 0.86684 10.8747 0.94184 12.1247C0.99184 13.183 1.19185 14.5414 2.33352 15.6831C3.47518 16.8164 4.83353 17.0247 5.88353 17.0747C6.51686 17.108 7.76684 17.1247 9.01684 17.1247C10.2668 17.1247 11.5085 17.108 12.1335 17.0747C13.1919 17.0247 14.5502 16.8247 15.6918 15.6831C16.8252 14.5497 17.0335 13.1914 17.0835 12.133C17.1585 10.8747 17.1585 7.14138 17.0835 5.88304L17.0752 5.87471ZM15.8252 12.058C15.7585 13.3164 15.4585 14.133 14.7919 14.7914C14.1335 15.4497 13.3169 15.758 12.0585 15.8164C10.8335 15.883 7.17519 15.883 5.93352 15.8164C4.68352 15.7497 3.86686 15.4414 3.20019 14.783C2.54186 14.1247 2.23352 13.3081 2.17518 12.0497C2.10852 10.8497 2.10852 7.13305 2.17518 5.92471C2.24185 4.66638 2.54186 3.84971 3.20019 3.19138C3.85852 2.53305 4.68352 2.22472 5.93352 2.16638C6.55019 2.13305 7.76684 2.11639 8.99184 2.11639C10.2168 2.11639 11.4419 2.13305 12.0585 2.16638C13.3169 2.23305 14.1335 2.53304 14.7919 3.19971C15.4502 3.85804 15.7585 4.67472 15.8168 5.93305C15.8835 7.16639 15.8835 10.8247 15.8168 12.058H15.8252ZM9.00019 5.04138C6.81685 5.04138 5.04185 6.81638 5.04185 8.99971C5.04185 11.183 6.81685 12.958 9.00019 12.958C11.1835 12.958 12.9585 11.183 12.9585 8.99971C12.9585 6.81638 11.1835 5.04138 9.00019 5.04138ZM9.00019 11.708C7.50852 11.708 6.29185 10.4914 6.29185 8.99971C6.29185 7.50805 7.50852 6.29138 9.00019 6.29138C10.4919 6.29138 11.7085 7.50805 11.7085 8.99971C11.7085 10.4914 10.4919 11.708 9.00019 11.708ZM14.4335 4.41638C14.4335 4.87471 14.0585 5.24971 13.6002 5.24971C13.1418 5.24971 12.7668 4.87471 12.7668 4.41638C12.7668 3.95805 13.1335 3.58305 13.6002 3.58305C14.0585 3.58305 14.4335 3.95805 14.4335 4.41638Z" fill="#E4405F"/>
</svg>
